[img]http://a.imageshack.us/img840/5006/awaket.jpg[/img]

Awake S01E02 720p WEB-DL H.264 (NLsubs)

Het verhaal gat over Detective Michael Britten, die op een dag samen met zijn gezin een ernstig auto-ongeluk krijgt.

Vanaf dat moment begint zijn leven zich op mysterieuze wijze af te spelen in twee alternatieve realiteiten.

In eerste instantie krijgt Micheal te horen dat zijn vrouw Hannah bij het ongeluk om het leven is gekomen, daarna wordt Michael echter ineens wakker in de twee de realiteit waarbij Rex zijn zoon bij het ongeluk is gestorven.

After a car accident takes the life of a family member, a police detective lives two alternating parallel lives, one with his wife and one with his son. Is one of his "realities" merely a dream?


__________________________________________________________________________________________________________


*Audio: 5.1
*source: 720p WEB-DL
*Formaat: x264HD
*Subs: Custom Nederlands (Instelbaar)(lossless)
*NL subs by: Désirée, quetsbeek, minouhse, Xtreme
*Weblink: http://www.imdb.com/title/tt1839683/
*Weblink: http://www.thetvdb.com/index.php?tab=series&id=248735

_________________________________________________________________________________________________________

Bedank ook eens de Vertaler(s) dankzij hun inzet hebben we veel kijkplezier ..


Video
ID : 1
Format : AVC
Format/Info : Advanced Video Codec
Format profile : High@L3.1
Format settings, CABAC : No
Format settings, ReFrames : 2 frames
Format settings, GOP : M=2, N=24
Codec ID : V_MPEG4/ISO/AVC
Duration : 43mn 7s
Bit rate : 3 853 Kbps
Width : 1 280 pixels
Height : 720 pixels
Display aspect ratio : 16:9
Frame rate : 23.976 fps
Color space : YUV
Chroma subsampling : 4:2:0
Bit depth : 8 bits
Scan type : Progressive
Bits/(Pixel*Frame) : 0.174
Stream size : 1.16 GiB (89%)
Language : English
Color primaries : BT.709-5, BT.1361, IEC 61966-2-4, SMPTE RP177
Transfer characteristics : BT.709-5, BT.1361
Matrix coefficients : BT.709-5, BT.1361, IEC 61966-2-4 709, SMPTE RP177

Audio
ID : 2
Format : AC-3
Format/Info : Audio Coding 3
Mode extension : CM (complete main)
Codec ID : A_AC3
Duration : 43mn 7s
Bit rate mode : Constant
Bit rate : 384 Kbps
Channel(s) : 6 channels
Channel positions : Front: L C R, Side: L R, LFE
Sampling rate : 48.0 KHz
Bit depth : 16 bits
Compression mode : Lossy
Stream size : 118 MiB (9%)
Language : English

Text
ID : 3
Format : UTF-8
Language : Dutch
Codec ID : S_TEXT/UTF8
Codec ID/Info : UTF-8 Plain Text


Uploaded by Spookkie@TBS

Check or Site
 
http://black-sam.org/index.php
